<mxfile host="app.diagrams.net" modified="2023-09-17T15:27:42.457Z" agent="Mozilla/5.0 (Macintosh; Intel Mac OS X 10_15_7) AppleWebKit/537.36 (KHTML, like Gecko) Chrome/117.0.0.0 Safari/537.36" etag="faAnadHuTqve4-5olFl7" version="21.7.5" type="github">
  <diagram name="第 1 页" id="2R3O5Xno_dGADAbL9_wi">
    <mxGraphModel dx="576" dy="398" grid="1" gridSize="10" guides="1" tooltips="1" connect="1" arrows="1" fold="1" page="1" pageScale="1" pageWidth="827" pageHeight="1169" math="0" shadow="0">
      <root>
        <mxCell id="0" />
        <mxCell id="1" parent="0" />
        <mxCell id="sW7hKWHMcVXPXfynoMV2-5" style="edgeStyle=orthogonalEdgeStyle;orthogonalLoop=1;jettySize=auto;html=1;rounded=1;" parent="1" source="sW7hKWHMcVXPXfynoMV2-1" edge="1">
          <mxGeometry relative="1" as="geometry">
            <mxPoint x="290" y="260" as="targetPoint" />
          </mxGeometry>
        </mxCell>
        <mxCell id="sW7hKWHMcVXPXfynoMV2-1" value="" style="rounded=0;whiteSpace=wrap;html=1;" parent="1" vertex="1">
          <mxGeometry x="160" y="120" width="120" height="60" as="geometry" />
        </mxCell>
      </root>
    </mxGraphModel>
  </diagram>
</mxfile>
